<?xml version="1.0" encoding="utf-8"?><svg version="1.1" id="Layer_1" xmlns="http://www.w3.org/2000/svg" xmlns:xlink="http://www.w3.org/1999/xlink" x="0px" y="0px" viewBox="0 0 115.28 122.88" style="enable-background:new 0 0 115.28 122.88" xml:space="preserve"><style type="text/css">.st0{fill-rule:evenodd;clip-rule:evenodd;}</style><g><path class="st0" d="M25.38,57h64.88V37.34H69.59c-2.17,0-5.19-1.17-6.62-2.6c-1.43-1.43-2.3-4.01-2.3-6.17V7.64l0,0H8.15 c-0.18,0-0.32,0.09-0.41,0.18C7.59,7.92,7.55,8.05,7.55,8.24v106.45c0,0.14,0.09,0.32,0.18,0.41c0.09,0.14,0.28,0.18,0.41,0.18 c22.78,0,58.09,0,81.51,0c0.18,0,0.17-0.09,0.27-0.18c0.14-0.09,0.33-0.28,0.33-0.41v-11.16H25.38c-4.14,0-7.56-3.4-7.56-7.56 V64.55C17.82,60.4,21.22,57,25.38,57L25.38,57z M29.6,68.07h8.25l4.29,7.45l4.16-7.45h8.15l-7.52,11.72l8.23,12.48h-8.42 l-4.75-7.77l-4.78,7.77h-8.35l8.34-12.61L29.6,68.07L29.6,68.07z M58.18,68.07h7.47v18.25h11.7v5.95H58.18V68.07L58.18,68.07z M80.06,84.26l7.1-0.45c0.15,1.15,0.47,2.03,0.94,2.63c0.77,0.97,1.87,1.46,3.3,1.46c1.06,0,1.89-0.25,2.46-0.75 c0.58-0.5,0.87-1.08,0.87-1.74c0-0.63-0.27-1.19-0.82-1.68c-0.55-0.5-1.82-0.96-3.82-1.4c-3.28-0.73-5.61-1.71-7.01-2.93 c-1.41-1.22-2.11-2.77-2.11-4.66c0-1.24,0.36-2.41,1.08-3.52c0.72-1.11,1.8-1.98,3.25-2.61c1.45-0.63,3.43-0.95,5.95-0.95 c3.09,0,5.45,0.57,7.07,1.73c1.62,1.15,2.59,2.98,2.9,5.49l-7.03,0.42c-0.19-1.1-0.58-1.9-1.18-2.39c-0.6-0.5-1.43-0.75-2.48-0.75 c-0.87,0-1.53,0.19-1.97,0.55c-0.44,0.37-0.66,0.82-0.66,1.35c0,0.38,0.18,0.73,0.54,1.04c0.34,0.32,1.18,0.61,2.5,0.89 c3.27,0.7,5.61,1.42,7.01,2.14c1.41,0.72,2.44,1.61,3.09,2.68c0.64,1.07,0.96,2.26,0.96,3.58c0,1.55-0.43,2.98-1.28,4.29 c-0.86,1.31-2.06,2.3-3.6,2.98c-1.54,0.68-3.48,1.01-5.82,1.01c-4.11,0-6.96-0.79-8.55-2.38C81.17,88.71,80.27,86.7,80.06,84.26 L80.06,84.26z M97.79,57h9.93c4.16,0,7.56,3.41,7.56,7.56v31.42c0,4.15-3.41,7.56-7.56,7.56h-9.93v13.55c0,1.61-0.65,3.04-1.7,4.1 c-1.06,1.06-2.49,1.7-4.1,1.7c-29.44,0-56.59,0-86.18,0c-1.61,0-3.04-0.64-4.1-1.7c-1.06-1.06-1.7-2.49-1.7-4.1V5.85 c0-1.61,0.65-3.04,1.7-4.1c1.06-1.06,2.53-1.7,4.1-1.7h58.72C64.66,0,64.8,0,64.94,0c0.64,0,1.29,0.28,1.75,0.69h0.09 c0.09,0.05,0.14,0.09,0.23,0.18l29.99,30.36c0.51,0.51,0.88,1.2,0.88,1.98c0,0.23-0.05,0.41-0.09,0.65V57L97.79,57z M67.52,27.97 V8.94l21.43,21.7H70.19c-0.74,0-1.38-0.32-1.89-0.78C67.84,29.4,67.52,28.71,67.52,27.97L67.52,27.97z"/></g></svg>